<svg width="16" height="16" viewBox="0 0 16 16" fill="none" xmlns="http://www.w3.org/2000/svg">
<path d="M9.52 1.33337C9.79984 1.33345 10.0726 1.42156 10.2995 1.58525C10.5265 1.74893 10.6962 1.97987 10.7847 2.24537L11.1467 3.33337H13.3333C13.5101 3.33337 13.6797 3.40361 13.8047 3.52864C13.9298 3.65366 14 3.82323 14 4.00004C14 4.17685 13.9298 4.34642 13.8047 4.47144C13.6797 4.59647 13.5101 4.66671 13.3333 4.66671L13.3313 4.71404L12.7533 12.8094C12.7173 13.3138 12.4915 13.7858 12.1214 14.1304C11.7513 14.475 11.2644 14.6666 10.7587 14.6667H5.24133C4.73564 14.6666 4.24874 14.475 3.87864 14.1304C3.50855 13.7858 3.28274 13.3138 3.24667 12.8094L2.66867 4.71337L2.66667 4.66671C2.48986 4.66671 2.32029 4.59647 2.19526 4.47144C2.07024 4.34642 2 4.17685 2 4.00004C2 3.82323 2.07024 3.65366 2.19526 3.52864C2.32029 3.40361 2.48986 3.33337 2.66667 3.33337H4.85333L5.21533 2.24537C5.3038 1.97977 5.47362 1.74874 5.70073 1.58505C5.92784 1.42136 6.20071 1.33331 6.48067 1.33337H9.52ZM11.998 4.66671H4.002L4.57667 12.714C4.58863 12.8822 4.66385 13.0395 4.78717 13.1545C4.9105 13.2694 5.07277 13.3333 5.24133 13.3334H10.7587C10.9272 13.3333 11.0895 13.2694 11.2128 13.1545C11.3362 13.0395 11.4114 12.8822 11.4233 12.714L11.998 4.66671ZM6.66667 6.66671C6.82996 6.66673 6.98756 6.72668 7.10958 6.83518C7.23161 6.94369 7.30956 7.09321 7.32867 7.25537L7.33333 7.33337V10.6667C7.33315 10.8366 7.26808 11.0001 7.15143 11.1236C7.03479 11.2472 6.87536 11.3215 6.70574 11.3315C6.53611 11.3414 6.36908 11.2863 6.23878 11.1772C6.10848 11.0681 6.02474 10.9134 6.00467 10.7447L6 10.6667V7.33337C6 7.15656 6.07024 6.98699 6.19526 6.86197C6.32029 6.73695 6.48986 6.66671 6.66667 6.66671ZM9.33333 6.66671C9.51014 6.66671 9.67971 6.73695 9.80474 6.86197C9.92976 6.98699 10 7.15656 10 7.33337V10.6667C10 10.8435 9.92976 11.0131 9.80474 11.1381C9.67971 11.2631 9.51014 11.3334 9.33333 11.3334C9.15652 11.3334 8.98695 11.2631 8.86193 11.1381C8.73691 11.0131 8.66667 10.8435 8.66667 10.6667V7.33337C8.66667 7.15656 8.73691 6.98699 8.86193 6.86197C8.98695 6.73695 9.15652 6.66671 9.33333 6.66671ZM9.52 2.66671H6.48L6.258 3.33337H9.742L9.52 2.66671Z" fill="#7A8688"/>
</svg>
