<svg width="14" height="14" viewBox="0 0 14 14" fill="none" xmlns="http://www.w3.org/2000/svg">
<path fill-rule="evenodd" clip-rule="evenodd" d="M9.91858 0.646519C9.82479 0.552682 9.69754 0.499974 9.56486 0.5C9.43218 0.500026 9.30495 0.552786 9.21119 0.64666L2.31286 7.55333C2.21922 7.64708 2.16663 7.77416 2.16663 7.90667V10.3333C2.16663 10.6095 2.39048 10.8333 2.66663 10.8333H5.10563C5.23827 10.8333 5.36548 10.7806 5.45926 10.6868L12.3536 3.78948C12.5488 3.59423 12.5487 3.27776 12.3536 3.08252L9.91858 0.646519ZM3.16663 8.1136L9.5651 1.70739L11.293 3.436L4.89846 9.83333H3.16663V8.1136ZM1.33337 12.5C1.05723 12.5 0.833374 12.7239 0.833374 13C0.833374 13.2761 1.05723 13.5 1.33337 13.5H13.3334C13.6095 13.5 13.8334 13.2761 13.8334 13C13.8334 12.7239 13.6095 12.5 13.3334 12.5H1.33337Z" fill="#5C6566"/>
</svg>
