<svg width="32" height="32" viewBox="0 0 32 32" fill="none" xmlns="http://www.w3.org/2000/svg">
<path fill-rule="evenodd" clip-rule="evenodd" d="M25.512 4.73578L26.588 3C17.2933 4.70113 9.04961 10.6154 4.45883 18.8622L4.44118 18.9664L9.98584 26.1609C12.9215 21.2287 17.7431 17.4532 23.2376 15.7835C23.0426 13.9951 23.0296 12.2068 23.3519 10.4326C23.7132 8.44408 24.5047 6.47691 25.512 4.73578ZM17.9033 28.0916L31 28.1151C30.772 27.9189 30.5198 27.7454 30.2669 27.5714L30.2669 27.5714L30.2668 27.5714C30.0927 27.4516 29.9181 27.3315 29.751 27.2037C27.7706 25.6881 26.0115 23.6287 24.9547 21.3564C24.8456 21.1217 24.7502 20.8809 24.6548 20.6402L24.6548 20.6402C24.554 20.3857 24.4532 20.1313 24.3361 19.8841C21.4109 21.8401 19.0005 24.7093 17.9033 28.0916ZM11.2632 28.1155C11.2523 28.0534 11.2712 28.0093 11.2935 27.957L11.2996 27.9428C11.4138 27.6727 11.6734 27.276 11.882 26.9573C11.9372 26.8728 11.9889 26.7939 12.0334 26.7242C14.7008 22.5417 18.8765 19.2787 23.6389 17.8362C23.693 17.8606 23.6125 17.9079 23.5735 17.9308C23.5687 17.9336 23.5644 17.9361 23.5612 17.9381C23.5597 17.9391 23.5584 17.9399 23.5574 17.9406C23.3968 18.0527 23.2327 18.1598 23.0685 18.267C22.8311 18.422 22.5935 18.5771 22.3662 18.7476C19.2763 21.0654 16.7927 24.3735 15.7214 28.1155H11.2632ZM1 28.1155H8.80186L3.39164 20.9538C2.29125 23.2224 1.4969 25.6395 1 28.1155Z" fill="#1F35DB"/>
</svg>
