<svg width="114" height="92" viewBox="0 0 114 92" fill="none" xmlns="http://www.w3.org/2000/svg">
<path fill-rule="evenodd" clip-rule="evenodd" d="M85.4558 0L82.7256 4.40416C80.1699 8.82189 78.1615 13.8132 77.2448 18.8587C76.427 23.3602 76.46 27.8977 76.9549 32.4353C63.0138 36.6718 50.78 46.2514 43.3314 58.7658L29.263 40.5113L29.3078 40.247C40.9559 19.3225 61.8726 4.31624 85.4558 0ZM96.6502 63.724L63.4203 63.6644C66.204 55.0827 72.32 47.8026 79.7422 42.8397C80.0391 43.467 80.2949 44.1125 80.5507 44.7581C80.7927 45.3689 81.0347 45.9798 81.3117 46.5753C83.9929 52.3407 88.4563 57.5662 93.4812 61.4116C93.9053 61.736 94.3482 62.0406 94.7902 62.3447C95.4319 62.786 96.0719 63.2262 96.6502 63.724ZM46.6494 63.323C46.5926 63.4558 46.5447 63.5676 46.5723 63.7252H57.884C60.6024 54.2307 66.9039 45.8371 74.7438 39.9561C75.3206 39.5235 75.9234 39.13 76.5258 38.7368C76.9425 38.4648 77.3588 38.193 77.7661 37.9086C77.7745 37.9028 77.7891 37.8942 77.8072 37.8836C77.9062 37.8254 78.1103 37.7055 77.9729 37.6437C65.8894 41.3038 55.2947 49.5828 48.5265 60.1949C48.4138 60.3717 48.2827 60.5719 48.1426 60.7861L48.1425 60.7862C47.6132 61.595 46.9545 62.6015 46.6648 63.2868L46.6494 63.323ZM40.3273 63.7252H20.5318C21.7925 57.4429 23.808 51.3099 26.6 45.5539L40.3273 63.7252ZM110.435 86.5013L102.836 76.9424H100.067V91.7527L100.067 91.7545C100.067 91.7556 100.067 91.7567 100.066 91.7578C100.066 91.7591 100.065 91.7605 100.065 91.7618C100.064 91.7625 100.064 91.7632 100.063 91.7639C100.063 91.7646 100.062 91.7652 100.062 91.7659C100.054 91.7759 100.04 91.7871 100.024 91.7998C99.983 91.8324 99.9296 91.8745 99.9495 91.9298H103.131V82.2529L110.967 91.9298H113.382L113.5 76.9424H110.436L110.435 86.5013ZM8.10065 76.9424C9.42683 77.0651 11.2408 77.7213 12.3225 78.4966C16.2628 81.3206 16.0613 87.7835 12.0851 90.4918C9.63041 92.1638 6.74817 92.0551 3.88316 91.9469H3.88304H3.88293H3.88281H3.8827H3.88258C2.743 91.9039 1.60613 91.861 0.5 91.9304L0.618416 76.9424C1.76536 77.0204 2.97644 76.9744 4.18702 76.9284C5.52101 76.8777 6.85439 76.827 8.10065 76.9424ZM3.68201 89.2155H7.51151C11.5401 89.2155 13.492 84.0407 10.8137 81.1878C10.1574 80.4892 8.46004 79.6567 7.51151 79.6567H3.68201V89.2155ZM49.9894 79.6567V76.9424V76.9418H38.6187L38.442 77.1188V91.9292H50.1072V89.51C50.1072 89.5064 50.1093 89.5022 50.1128 89.4976C50.1181 89.4907 50.1267 89.4826 50.1364 89.4734C50.1727 89.4391 50.2246 89.3903 50.1756 89.3318L49.9316 89.2138C48.7708 89.1437 47.5258 89.2245 46.277 89.3056H46.2769H46.2767H46.2766H46.2765C44.7812 89.4027 43.2806 89.5002 41.9121 89.3394C41.8937 89.3373 41.8757 89.3354 41.8582 89.3336C41.7128 89.3185 41.5981 89.3066 41.5056 89.1565V85.8522L41.6823 85.6752H48.87L49.0467 85.4982V82.961H41.5056V79.8337L41.6823 79.6567H49.9894ZM32.3148 76.9424V79.6566H24.1256L23.9489 79.8337V82.9019C24.3946 83.2083 25.0208 83.1146 25.5929 83.029C25.823 82.9946 26.0444 82.9615 26.2418 82.9562C27.2391 82.9296 28.24 82.9447 29.2403 82.9599C29.9266 82.9702 30.6125 82.9806 31.2968 82.9775L31.4382 83.0713L31.3722 85.6752H24.0667V89.3335L32.5505 89.2155V91.9298H20.8853V77.1194L21.062 76.9424H32.3148ZM59.1802 91.9298V87.4454H63.3631C64.2357 87.4454 66.1163 86.5219 66.7826 85.9136C70.1408 82.8477 67.922 76.9424 63.3631 76.9424H56.1755L55.9987 77.1194V91.9298H59.1802ZM61.0429 84.7495C60.3944 84.7427 59.7533 84.736 59.1802 84.8491V79.6566H63.0097C63.1929 79.6566 64.0471 80.0585 64.2392 80.1954C65.662 81.2108 65.4876 83.3303 64.0513 84.2402C63.2112 84.7722 62.1168 84.7607 61.0429 84.7495ZM85.1029 76.9424V79.6566H76.9726V83.551H84.1602V86.1472H76.9726V91.9298H73.909V76.9424H85.1029ZM90.5231 76.9424H93.5867V91.9298H90.5231V76.9424Z" fill="#1F35DB"/>
</svg>
